<?xml version="1.0" encoding="UTF-8"?>
<svg id="Layer_2" data-name="Layer 2" xmlns="http://www.w3.org/2000/svg" viewBox="0 0 295.05 295.7">
  <defs>
    <style>
      .cls-1 {
        fill: #1c3557;
      }

      .cls-2 {
        fill: #e63946;
      }
    </style>
  </defs>
  <g id="Layer_1-2" data-name="Layer 1">
    <g>
      <path class="cls-1" d="M53.03,150.7c1.52,51.6,45.21,92.01,96.84,92.01h23.24c38.08,0,68.95-30.87,68.95-68.95h0c6.73,6.91,16.13,11.18,26.49,11.18s19.76-4.27,26.49-11.18h0c0,67.35-54.59,121.94-121.94,121.94h-22.78c-80.96,0-148.77-64.05-150.3-145C-1.54,67.87,65.37,0,147.85,0h120.7c14.63,0,26.49,11.86,26.49,26.49h0c0,14.63-11.86,26.49-26.49,26.49h-120.7c-53.25,0-96.4,44.1-94.82,97.72Z"/>
      <g>
        <circle class="cls-2" cx="268.56" cy="147.85" r="26.49"/>
        <circle class="cls-2" cx="209.02" cy="147.85" r="18.94"/>
        <circle class="cls-2" cx="162.53" cy="147.85" r="13.05"/>
      </g>
    </g>
  </g>
</svg>